<?xml version="1.0" standalone="no"?>
<!DOCTYPE svg PUBLIC "-//W3C//DTD SVG 20010904//EN"
 "http://www.w3.org/TR/2001/REC-SVG-20010904/DTD/svg10.dtd">
<svg version="1.0" xmlns="http://www.w3.org/2000/svg"
 width="1024.000000pt" height="1024.000000pt" viewBox="0 0 1024.000000 1024.000000"
 preserveAspectRatio="xMidYMid meet">
<g transform="translate(0.000000,1024.000000) scale(0.100000,-0.100000)"
fill="#000000" stroke="none">
<path d="M4755 7599 c-251 -37 -444 -98 -680 -214 -105 -51 -215 -115 -288
-165 -128 -90 -305 -253 -415 -383 -249 -293 -436 -707 -483 -1067 -17 -130
-17 -551 -1 -665 52 -349 215 -725 439 -1009 78 -98 231 -254 336 -342 518
-434 1260 -593 1959 -418 693 173 1263 680 1511 1344 44 118 102 344 122 479
20 131 20 424 0 574 -50 380 -215 752 -481 1087 -331 415 -869 713 -1419 785
-163 21 -435 18 -600 -6z m465 -350 c55 -6 113 -15 128 -19 l27 -8 -27 -1
c-57 -2 -236 -42 -343 -77 -239 -77 -437 -196 -606 -364 -239 -236 -372 -481
-440 -810 -29 -140 -31 -425 -5 -575 43 -239 152 -466 320 -664 216 -255 493
-416 846 -492 141 -31 424 -33 574 -5 525 97 943 433 1162 936 20 47 38 86 39
88 8 9 -9 -134 -26 -220 -46 -232 -175 -504 -334 -703 -293 -368 -677 -600
-1135 -688 -98 -19 -149 -22 -345 -22 -198 0 -247 3 -350 23 -312 60 -642 220
-877 427 -245 214 -429 491 -528 795 -49 147 -67 246 -79 434 -23 333 35 639
173 922 186 381 482 675 861 855 295 140 650 202 965 168z m764 -434 c268 -48
487 -284 515 -557 33 -333 -163 -622 -479 -705 -87 -23 -253 -22 -340 1 -168
45 -330 178 -407 332 -126 253 -79 552 116 744 162 160 371 225 595 185z"/>
</g>
</svg>
